<?xml version="1.0" encoding="iso-8859-1"?>
<!-- Generator: Adobe Illustrator 19.0.0, SVG Export Plug-In . SVG Version: 6.00 Build 0)  -->
<svg version="1.1" id="Capa_1" xmlns="http://www.w3.org/2000/svg" xmlns:xlink="http://www.w3.org/1999/xlink" x="0px" y="0px"
	 viewBox="0 0 480 480" style="enable-background:new 0 0 480 480;" xml:space="preserve">
<path style="fill:#EBAA39;" d="M117.264,203.144C112,185.496,99.232,176,80,176c-25.792,0-40,17.048-40,48
	c0,28.176,27.752,62.48,39.992,76.224c0.32-0.36,0.624-0.704,0.968-1.088c0.336-0.384,0.672-0.768,1.032-1.176
	c0.896-1.024,1.84-2.136,2.832-3.312c0.12-0.136,0.224-0.256,0.336-0.4c1.112-1.328,2.288-2.768,3.496-4.272
	c0.328-0.408,0.664-0.848,1-1.264c0.904-1.144,1.832-2.336,2.768-3.56c0.408-0.536,0.816-1.08,1.232-1.632
	c0.952-1.264,1.912-2.576,2.872-3.92c0.36-0.496,0.712-0.984,1.072-1.496c1.296-1.84,2.6-3.736,3.88-5.68
	c0.176-0.272,0.344-0.552,0.52-0.816c1.088-1.672,2.152-3.376,3.2-5.112c0.384-0.632,0.752-1.272,1.128-1.912
	c0.848-1.448,1.672-2.912,2.472-4.392c0.368-0.68,0.736-1.36,1.096-2.04c0.872-1.68,1.704-3.376,2.496-5.072
	c0.208-0.448,0.44-0.888,0.64-1.336c0.96-2.128,1.832-4.264,2.624-6.4c0.2-0.544,0.368-1.088,0.552-1.632
	c0.56-1.608,1.08-3.224,1.528-4.832c0.2-0.72,0.376-1.432,0.552-2.144c0.368-1.512,0.672-3.016,0.928-4.512
	c0.112-0.656,0.24-1.32,0.328-1.976c0.28-2.104,0.464-4.192,0.464-6.248c0-7.632-0.92-14.624-2.728-20.776
	C117.264,203.2,117.272,203.176,117.264,203.144z M80,240c-13.232,0-24-10.768-24-24s10.768-24,24-24s24,10.768,24,24
	S93.232,240,80,240z"/>
<g>
	<circle style="fill:#FFFFFF;" cx="80.04" cy="216" r="8"/>
	<circle style="fill:#FFFFFF;" cx="240.04" cy="56" r="8"/>
</g>
<g>
	<path style="fill:#EBAA39;" d="M280,64c0-30.952-14.208-48-40-48s-40,17.048-40,48c0,28.184,27.76,62.488,40,76.232
		C252.24,126.488,280,92.184,280,64z M216,56c0-13.232,10.768-24,24-24c13.232,0,24,10.768,24,24s-10.768,24-24,24
		S216,69.232,216,56z"/>
	<path style="fill:#EBAA39;" d="M360.792,232.224c0.248,1.496,0.552,3,0.928,4.512c0.176,0.712,0.352,1.432,0.552,2.144
		c0.448,1.608,0.96,3.216,1.528,4.832c0.192,0.544,0.352,1.088,0.552,1.632c0.792,2.136,1.672,4.272,2.624,6.4
		c0.2,0.448,0.432,0.896,0.64,1.336c0.792,1.704,1.624,3.4,2.496,5.072c0.36,0.688,0.728,1.36,1.096,2.04
		c0.8,1.48,1.624,2.944,2.472,4.392c0.376,0.64,0.744,1.28,1.128,1.912c1.048,1.736,2.112,3.44,3.2,5.112
		c0.176,0.272,0.344,0.552,0.52,0.816c1.28,1.944,2.576,3.84,3.88,5.68c0.36,0.512,0.712,0.992,1.072,1.496
		c0.96,1.336,1.92,2.648,2.872,3.92c0.416,0.552,0.824,1.096,1.232,1.632c0.936,1.224,1.856,2.416,2.768,3.56
		c0.336,0.424,0.672,0.856,1,1.264c1.2,1.504,2.384,2.944,3.496,4.272c0.12,0.144,0.224,0.256,0.336,0.4
		c0.992,1.184,1.936,2.288,2.832,3.312c0.36,0.416,0.696,0.792,1.032,1.176s0.648,0.728,0.968,1.088
		c12.24-13.752,39.992-48.048,39.992-76.224c0-30.952-14.208-48-40-48c-19.232,0-32,9.496-37.264,27.144
		c-0.008,0.024-0.008,0.056-0.016,0.08C360.92,209.376,360,216.368,360,224c0,2.048,0.184,4.144,0.464,6.248
		C360.552,230.904,360.68,231.56,360.792,232.224z M400,192c13.232,0,24,10.768,24,24s-10.768,24-24,24s-24-10.768-24-24
		S386.768,192,400,192z"/>
</g>
<circle style="fill:#FFFFFF;" cx="400.04" cy="216" r="8"/>
<path style="fill:#EBAA39;" d="M240,336c-25.792,0-40,17.048-40,48c0,28.184,27.76,62.488,40,76.232
	c12.24-13.752,40-48.048,40-76.232C280,353.048,265.792,336,240,336z M240,400c-13.232,0-24-10.768-24-24s10.768-24,24-24
	s24,10.768,24,24S253.232,400,240,400z"/>
<circle style="fill:#FFFFFF;" cx="240.04" cy="376" r="8"/>
<g>
	<path style="fill:#1F2933;" d="M169.992,235.088l10.784,11.832c3.552-3.24,7.408-6.208,11.456-8.832l-8.696-13.432
		C178.752,227.744,174.192,231.256,169.992,235.088z"/>
	<path style="fill:#1F2933;" d="M214.792,211.08c-5.52,1.376-10.976,3.224-16.2,5.496l6.384,14.672
		c4.416-1.92,9.016-3.48,13.68-4.648L214.792,211.08z"/>
	<path style="fill:#1F2933;" d="M326.728,297l15.776-2.704c-0.96-5.6-2.4-11.168-4.272-16.552l-15.112,5.264
		C324.704,287.568,325.92,292.272,326.728,297z"/>
	<path style="fill:#1F2933;" d="M326.92,325.84l15.808,2.496c0.848-5.368,1.28-10.864,1.272-17.12L328,312
		C328,316.648,327.64,321.304,326.92,325.84z"/>
	<path style="fill:#1F2933;" d="M296.768,224.848l-8.736,13.408c4.016,2.616,7.856,5.6,11.424,8.864l10.816-11.8
		C306.056,231.472,301.52,227.944,296.768,224.848z"/>
	<path style="fill:#1F2933;" d="M317.248,269.808l14.032-7.688c-2.72-4.976-5.888-9.776-9.408-14.264l-12.592,9.864
		C312.264,261.528,314.944,265.6,317.248,269.808z"/>
	<path style="fill:#1F2933;" d="M300.28,376.064l10.96,11.656c4.152-3.896,8-8.168,11.448-12.68l-12.72-9.712
		C307.056,369.152,303.792,372.76,300.28,376.064z"/>
	<path style="fill:#1F2933;" d="M317.784,353.16l14.136,7.504c2.672-5.032,4.936-10.312,6.736-15.704l-15.168-5.072
		C321.96,344.44,320.04,348.904,317.784,353.16z"/>
	<path style="fill:#1F2933;" d="M156.984,282.712l-15.088-5.328c-1.888,5.344-3.352,10.904-4.336,16.528l15.76,2.784
		C154.16,291.936,155.392,287.224,156.984,282.712z"/>
	<path style="fill:#1F2933;" d="M152,311.552l-8-0.544L136,312c0,5.344,0.408,10.712,1.224,15.968l15.816-2.448
		C152.352,321.08,152,316.528,152,311.552z"/>
	<path style="fill:#1F2933;" d="M281.752,216.72c-5.216-2.288-10.656-4.152-16.168-5.552l-3.92,15.512
		c4.656,1.176,9.256,2.752,13.656,4.688L281.752,216.72z"/>
	<path style="fill:#1F2933;" d="M157.088,374.744c3.432,4.52,7.272,8.808,11.4,12.72l11-11.624
		c-3.504-3.32-6.752-6.936-9.664-10.768L157.088,374.744z"/>
	<path style="fill:#1F2933;" d="M156.416,339.584l-15.2,5.016c1.784,5.4,4.032,10.696,6.688,15.736l14.16-7.456
		C159.816,348.616,157.92,344.144,156.416,339.584z"/>
	<path style="fill:#1F2933;" d="M240.016,224c2.64,0,4.952,0.104,7.384,0.304l1.336-15.944c-2.84-0.24-5.704-0.36-8.584-0.36
		c-2.84,0-5.688,0.104-8.496,0.336l1.272,15.952C235.264,224.096,237.624,224,240.016,224z"/>
	<path style="fill:#1F2933;" d="M170.912,257.496l-12.552-9.92c-3.52,4.464-6.704,9.248-9.456,14.224l14.008,7.736
		C165.232,265.32,167.928,261.272,170.912,257.496z"/>
	<path style="fill:#1F2933;" d="M240,352c-13.232,0-24,10.768-24,24s10.768,24,24,24s24-10.768,24-24S253.232,352,240,352z M240,384
		c-4.408,0-8-3.584-8-8c0-4.408,3.592-8,8-8s8,3.592,8,8C248,380.416,244.408,384,240,384z"/>
	<path style="fill:#1F2933;" d="M264,56c0-13.232-10.768-24-24-24s-24,10.768-24,24s10.768,24,24,24S264,69.232,264,56z M232,56
		c0-4.408,3.592-8,8-8s8,3.592,8,8s-3.592,8-8,8S232,60.408,232,56z"/>
	<path style="fill:#1F2933;" d="M456,224c0-40.072-20.936-64-56-64c-22.336,0-38.896,9.736-48.008,27.136
		c-26.616-23.976-59.432-38.704-94.824-42.272C272.04,127.16,296,94.024,296,64c0-40.072-20.936-64-56-64s-56,23.928-56,64
		c0,30.024,23.952,63.16,38.832,80.864c-35.384,3.568-68.2,18.296-94.824,42.272C118.896,169.736,102.336,160,80,160
		c-35.064,0-56,23.928-56,64c0,38.112,38.592,81.272,48.176,91.4C74.008,406.456,148.512,480,240,480s165.992-73.544,167.824-164.6
		C417.408,305.272,456,262.112,456,224z M400,176c25.792,0,40,17.048,40,48c0,28.176-27.752,62.48-39.992,76.224
		c-0.336-0.384-0.664-0.752-1.032-1.16c-0.304-0.352-0.608-0.696-0.936-1.064c-0.936-1.072-1.92-2.224-2.968-3.472
		c-0.08-0.096-0.144-0.168-0.224-0.264c-1.12-1.336-2.304-2.792-3.52-4.304c-0.312-0.392-0.64-0.816-0.96-1.216
		c-0.912-1.152-1.848-2.352-2.792-3.592c-0.416-0.544-0.824-1.088-1.24-1.64c-0.944-1.256-1.888-2.552-2.84-3.88
		c-0.368-0.512-0.736-1.008-1.096-1.528c-1.296-1.84-2.592-3.728-3.872-5.68c-0.176-0.264-0.336-0.536-0.512-0.8
		c-1.088-1.672-2.16-3.384-3.208-5.12c-0.384-0.632-0.752-1.28-1.128-1.92c-0.848-1.448-1.672-2.912-2.472-4.384
		c-0.368-0.68-0.736-1.36-1.096-2.04c-0.88-1.688-1.712-3.384-2.504-5.096c-0.208-0.44-0.432-0.88-0.632-1.32
		c-0.96-2.128-1.832-4.264-2.624-6.4c-0.2-0.544-0.368-1.088-0.56-1.632c-0.56-1.608-1.072-3.216-1.52-4.824
		c-0.2-0.72-0.376-1.432-0.552-2.144c-0.368-1.512-0.672-3.016-0.928-4.512c-0.112-0.656-0.24-1.32-0.328-1.976
		c-0.28-2.104-0.464-4.192-0.464-6.248c0-7.632,0.92-14.624,2.728-20.776c0.008-0.024,0.008-0.056,0.016-0.08
		C368,185.496,380.768,176,400,176z M240,16c25.792,0,40,17.048,40,48c0,28.184-27.76,62.488-40,76.232
		C227.76,126.488,200,92.184,200,64C200,33.048,214.208,16,240,16z M80,176c19.232,0,32,9.496,37.264,27.144
		c0.008,0.024,0.008,0.056,0.016,0.08c1.8,6.152,2.72,13.144,2.72,20.776c0,2.048-0.184,4.144-0.464,6.248
		c-0.088,0.656-0.216,1.32-0.328,1.976c-0.248,1.496-0.552,3-0.928,4.512c-0.176,0.712-0.352,1.432-0.552,2.144
		c-0.448,1.608-0.96,3.216-1.52,4.824c-0.192,0.544-0.352,1.088-0.56,1.632c-0.792,2.136-1.672,4.28-2.624,6.4
		c-0.2,0.44-0.424,0.88-0.632,1.32c-0.792,1.712-1.624,3.408-2.504,5.096c-0.36,0.688-0.728,1.36-1.096,2.04
		c-0.8,1.48-1.624,2.936-2.472,4.384c-0.376,0.64-0.744,1.288-1.128,1.92c-1.048,1.736-2.12,3.448-3.208,5.12
		c-0.168,0.264-0.336,0.536-0.512,0.8c-1.28,1.944-2.576,3.832-3.872,5.68c-0.368,0.52-0.736,1.016-1.096,1.528
		c-0.952,1.328-1.896,2.624-2.84,3.88c-0.416,0.552-0.832,1.104-1.24,1.64c-0.944,1.24-1.88,2.44-2.792,3.592
		c-0.32,0.4-0.648,0.824-0.96,1.216c-1.216,1.512-2.4,2.968-3.52,4.304c-0.08,0.096-0.144,0.176-0.224,0.264
		c-1.048,1.248-2.032,2.4-2.968,3.472c-0.32,0.368-0.624,0.712-0.936,1.064c-0.36,0.416-0.688,0.784-1.032,1.16
		C67.752,286.48,40,252.176,40,224C40,193.048,54.208,176,80,176z M200,384c0-30.952,14.208-48,40-48s40,17.048,40,48
		c0,28.184-27.76,62.48-40,76.232C227.76,446.48,200,412.184,200,384z M258.984,462.68C273.912,444.52,296,412.816,296,384
		c0-40.072-20.936-64-56-64s-56,23.928-56,64c0,28.816,22.088,60.52,37.016,78.68c-73.84-9.264-131.416-71.552-132.984-147.496
		c0.448-0.48,0.976-1.048,1.536-1.656c0.304-0.328,0.576-0.624,0.912-0.992c0.496-0.544,1.016-1.128,1.568-1.752
		c0.504-0.56,1-1.128,1.544-1.744c0.536-0.608,1.072-1.232,1.64-1.896c0.64-0.744,1.296-1.52,1.984-2.336
		c0.568-0.68,1.128-1.352,1.728-2.072c0.744-0.904,1.512-1.856,2.288-2.832c0.592-0.744,1.176-1.464,1.784-2.24
		c0.864-1.104,1.744-2.272,2.632-3.448c0.552-0.728,1.088-1.424,1.64-2.176c1.192-1.608,2.392-3.296,3.592-5.008
		c0.264-0.376,0.528-0.728,0.792-1.104c1.456-2.104,2.896-4.28,4.32-6.512c0.424-0.664,0.824-1.352,1.24-2.024
		c1-1.608,1.992-3.216,2.952-4.88c0.512-0.872,0.992-1.768,1.48-2.656c0.84-1.496,1.656-3,2.448-4.536
		c0.512-0.984,0.992-1.976,1.48-2.976c0.728-1.48,1.424-2.968,2.096-4.472c0.464-1.04,0.904-2.08,1.344-3.136
		c0.624-1.496,1.192-3,1.744-4.512c0.384-1.056,0.768-2.104,1.112-3.168c0.512-1.56,0.952-3.12,1.384-4.688
		c0.272-1.016,0.568-2.024,0.808-3.032c0.4-1.712,0.688-3.424,0.968-5.136c0.144-0.864,0.328-1.72,0.44-2.584
		c0.32-2.56,0.512-5.104,0.512-7.632c0-3.376-0.2-6.592-0.496-9.736c-0.056-0.6-0.12-1.192-0.184-1.792
		c-0.352-3.152-0.808-6.224-1.456-9.128C162.456,175.36,199.968,160,240,160s77.544,15.36,106.136,43.352
		c-0.648,2.896-1.104,5.976-1.456,9.128c-0.072,0.592-0.128,1.184-0.184,1.792c-0.296,3.144-0.496,6.36-0.496,9.736
		c0,2.528,0.192,5.072,0.512,7.632c0.104,0.856,0.296,1.72,0.44,2.584c0.28,1.712,0.568,3.416,0.968,5.136
		c0.24,1.016,0.536,2.024,0.808,3.032c0.424,1.568,0.864,3.128,1.384,4.688c0.352,1.064,0.728,2.112,1.112,3.168
		c0.552,1.512,1.128,3.016,1.744,4.512c0.432,1.048,0.88,2.088,1.344,3.136c0.672,1.504,1.368,2.984,2.096,4.472
		c0.488,1,0.968,1.992,1.48,2.976c0.792,1.536,1.616,3.032,2.448,4.536c0.496,0.888,0.976,1.784,1.48,2.656
		c0.96,1.656,1.952,3.272,2.952,4.88c0.416,0.672,0.824,1.36,1.24,2.024c1.424,2.232,2.872,4.408,4.32,6.512
		c0.264,0.384,0.528,0.728,0.792,1.104c1.2,1.72,2.4,3.4,3.592,5.008c0.56,0.752,1.096,1.448,1.64,2.176
		c0.888,1.176,1.768,2.336,2.632,3.448c0.608,0.776,1.184,1.496,1.784,2.24c0.776,0.976,1.544,1.928,2.288,2.832
		c0.592,0.72,1.16,1.4,1.728,2.072c0.68,0.816,1.336,1.592,1.984,2.336c0.568,0.664,1.112,1.288,1.64,1.896
		c0.544,0.624,1.04,1.184,1.544,1.744c0.552,0.616,1.08,1.208,1.568,1.752c0.328,0.36,0.608,0.664,0.912,0.992
		c0.56,0.608,1.088,1.184,1.536,1.656C390.4,391.128,332.824,453.416,258.984,462.68z"/>
	<path style="fill:#1F2933;" d="M400,240c13.232,0,24-10.768,24-24s-10.768-24-24-24s-24,10.768-24,24S386.768,240,400,240z
		 M400,208c4.408,0,8,3.592,8,8s-3.592,8-8,8s-8-3.592-8-8S395.592,208,400,208z"/>
	<path style="fill:#1F2933;" d="M80,240c13.232,0,24-10.768,24-24s-10.768-24-24-24s-24,10.768-24,24S66.768,240,80,240z M80,208
		c4.408,0,8,3.592,8,8s-3.592,8-8,8s-8-3.592-8-8S75.592,208,80,208z"/>
	<path style="fill:#1F2933;" d="M240,284.688l-10.344-10.344l-11.312,11.312l16,16c1.56,1.56,3.608,2.344,5.656,2.344
		s4.096-0.784,5.656-2.344l40-40l-11.312-11.312L240,284.688z"/>
	<rect x="312.04" y="56" style="fill:#1F2933;" width="16" height="16"/>
	<rect x="344.04" y="24" style="fill:#1F2933;" width="16" height="16"/>
	<rect x="344.04" y="56" style="fill:#1F2933;" width="16" height="16"/>
	<rect x="344.04" y="88" style="fill:#1F2933;" width="16" height="16"/>
	<rect x="151.96" y="56" style="fill:#1F2933;" width="16" height="16"/>
	<rect x="119.96" y="88" style="fill:#1F2933;" width="16" height="16"/>
	<rect x="119.96" y="56" style="fill:#1F2933;" width="16" height="16"/>
	<rect x="119.96" y="24" style="fill:#1F2933;" width="16" height="16"/>
</g>
<g>
</g>
<g>
</g>
<g>
</g>
<g>
</g>
<g>
</g>
<g>
</g>
<g>
</g>
<g>
</g>
<g>
</g>
<g>
</g>
<g>
</g>
<g>
</g>
<g>
</g>
<g>
</g>
<g>
</g>
</svg>
