<?xml version="1.0" encoding="iso-8859-1"?>
<!-- Generator: Adobe Illustrator 19.0.0, SVG Export Plug-In . SVG Version: 6.00 Build 0)  -->
<svg version="1.1" id="Capa_1" xmlns="http://www.w3.org/2000/svg" xmlns:xlink="http://www.w3.org/1999/xlink" x="0px" y="0px"
	 viewBox="0 0 512 512" style="enable-background:new 0 0 512 512;" xml:space="preserve">
<path style="fill:#ED2E4E;" d="M67,200.601V100.399C67,95.76,70.76,92,75.399,92h154.202c4.639,0,8.399,3.76,8.399,8.399v100.202
	c0,4.639-3.76,8.399-8.399,8.399H75.399C70.76,209,67,205.24,67,200.601z"/>
<path style="fill:#D60B37;" d="M145.082,200.601V100.399c0-4.639,3.76-8.399,8.399-8.399H75.399C70.76,92,67,95.76,67,100.399
	v100.202c0,4.639,3.76,8.399,8.399,8.399h78.082C148.842,209,145.082,205.239,145.082,200.601z"/>
<path style="fill:#E0E0E3;" d="M91,179.349v-57.698c0-3.121,2.53-5.651,5.651-5.651h111.698c3.121,0,5.651,2.53,5.651,5.651v57.698
	c0,3.121-2.53,5.651-5.651,5.651H96.651C93.53,185,91,182.47,91,179.349z"/>
<path style="fill:#086987;" d="M419.9,268.52c-0.878-1.557-2.527-2.52-4.314-2.52h-40.721h-50.729H96.413
	c-1.787,0-3.436,0.963-4.314,2.52L10.811,412.613C8.949,415.915,11.334,420,15.126,420h481.749c3.791,0,6.177-4.085,4.314-7.387
	L419.9,268.52z"/>
<path style="fill:#098484;" d="M158.726,412.613l81.288-144.093c0.878-1.557,2.527-2.52,4.314-2.52H96.413
	c-1.787,0-3.436,0.963-4.314,2.52L10.811,412.613C8.949,415.915,11.334,420,15.126,420H163.04
	C159.249,420,156.863,415.915,158.726,412.613z"/>
<path style="fill:#045466;" d="M355.174,283.584c0.713-2.878,2.24-9.399,3.609-17.584h-34.647h-48.437
	c14.112,18.325,61.624,22.9,71.091,23.635h0.001C350.687,289.938,354.233,287.379,355.174,283.584z"/>
<path style="fill:#ED2E4E;" d="M344.33,286.69c-7.319-6.198-43.83-38.294-43.83-61.471c0-27.019,21.981-49,49-49s49,21.981,49,49
	c0,23.18-36.511,55.273-43.83,61.472l0,0C351.686,289.218,347.314,289.218,344.33,286.69L344.33,286.69z"/>
<path style="fill:#D60B37;" d="M343.573,226.134c0-19.659,11.643-36.641,28.391-44.439c-6.734-3.49-14.369-5.475-22.463-5.475
	c-27.019,0-49,21.981-49,49c0,23.177,36.511,55.272,43.83,61.471l0,0c2.983,2.527,7.356,2.527,10.339,0
	c2.602-2.203,8.895-7.687,15.922-14.869C358.043,258.848,343.573,240.726,343.573,226.134z"/>
<path style="fill:#FFFFFF;" d="M349.5,240c-9.098,0-16.5-7.402-16.5-16.5s7.402-16.5,16.5-16.5s16.5,7.402,16.5,16.5
	S358.598,240,349.5,240z"/>
<path style="fill:#E0E0E3;" d="M50.165,391.7l56.545-100.233c0.511-0.906,1.471-1.467,2.511-1.467h293.557
	c1.04,0,2,0.561,2.511,1.467L461.836,391.7c1.084,1.922-0.304,4.3-2.511,4.3H52.676C50.469,396,49.08,393.622,50.165,391.7z"/>
<g>
	<polygon style="fill:#A4E869;" points="367.536,343.001 400.644,345.5 370.475,290 335.83,290 	"/>
	<polygon style="fill:#A4E869;" points="70.586,355.5 441.414,355.5 430.131,335.5 81.869,335.5 	"/>
</g>
<circle style="fill:#F5C16E;" cx="241.5" cy="345.5" r="27.652"/>
<g>
	<polygon style="fill:#A4E869;" points="348.776,346 316.082,346 344.644,396 376.721,396 	"/>
	<polygon style="fill:#A4E869;" points="169.339,396 188.095,345.5 158.67,345.5 139.409,396 	"/>
</g>
<path d="M226.651,320.045c-2.928-2.93-7.677-2.929-10.606-0.001c-6.8,6.8-10.544,15.84-10.544,25.456s3.745,18.656,10.544,25.456
	c1.464,1.464,3.384,2.196,5.303,2.196s3.839-0.732,5.303-2.197c2.929-2.929,2.929-7.678,0-10.606
	c-3.967-3.966-6.151-9.239-6.151-14.849s2.184-10.883,6.151-14.849C229.58,327.723,229.58,322.974,226.651,320.045z"/>
<path d="M256.349,320.044c-2.929,2.93-2.929,7.678,0,10.607c8.188,8.188,8.188,21.51,0,29.697c-2.929,2.93-2.929,7.678,0,10.607
	c1.464,1.464,3.384,2.196,5.303,2.196s3.839-0.732,5.304-2.196c14.036-14.037,14.036-36.875,0-50.912
	C264.026,317.116,259.277,317.116,256.349,320.044z"/>
<circle cx="241.5" cy="345.5" r="10"/>
<path d="M213.5,192c4.142,0,7.5-3.357,7.5-7.5v-68c0-4.143-3.358-7.5-7.5-7.5h-122c-4.142,0-7.5,3.357-7.5,7.5v68
	c0,4.143,3.358,7.5,7.5,7.5H213.5z M99,158h46.751l14.257,19H99V158z M178.761,177l-4.291-5.719H206V177H178.761z M206,124v32.281
	h-42.785l-7.716-10.282c-1.417-1.888-3.639-2.999-5.999-2.999H99v-19L206,124L206,124z"/>
<path d="M183.5,151c2.464,0,4.771-1.21,6.171-3.237C194,141.496,194,138.593,194,137.5c0-5.79-4.71-10.5-10.5-10.5
	s-10.5,4.71-10.5,10.5c0,1.093,0,3.996,4.329,10.263C178.729,149.79,181.036,151,183.5,151z"/>
<path d="M511.032,415.814l-86.313-153c-1.33-2.356-3.826-3.814-6.532-3.814H391.06c8.173-10.941,14.44-22.881,14.44-33.78
	c0-30.879-25.121-56-56-56s-56,25.121-56,56c0,10.899,6.267,22.839,14.44,33.78h-81.146l-18.019-43H231.2
	c7.609,0,13.8-6.19,13.8-13.8V98.8c0-7.609-6.19-13.8-13.8-13.8H73.8C66.19,85,60,91.19,60,98.8v103.4c0,7.609,6.19,13.8,13.8,13.8
	h118.711l18.019,43H93.813c-2.706,0-5.203,1.458-6.532,3.814l-86.313,153c-1.31,2.322-1.289,5.166,0.056,7.468
	C2.368,425.585,4.834,427,7.5,427h497c2.666,0,5.132-1.415,6.477-3.718C512.321,420.98,512.342,418.137,511.032,415.814z M230,201
	H75V100h155V201 M349.5,184.22c22.607,0,41,18.393,41,41c0,15.418-23.49,40.538-41,55.366c-17.511-14.83-41-39.948-41-55.366
	C308.5,202.612,326.893,184.22,349.5,184.22z M320.697,274c3.099,3.268,6.167,6.288,9.04,9h-92.886l-3.771-9H320.697z M463.18,403
	c2.118,0,4.204-0.788,5.659-2.327c2.318-2.454,2.688-6.04,1.099-8.858l-59.235-105c-1.33-2.356-3.826-3.814-6.532-3.814h-34.906
	c2.873-2.712,5.94-5.732,9.04-9h35.503l77.852,138H20.342l77.851-138h118.623l3.771,9h-45.219c-4.751,0-8.297,4.432-7.188,9.051
	c0.022,0.09,0.043,0.18,0.064,0.27c0.781,3.325,3.737,5.68,7.153,5.68h51.475l7.71,18.398c1.204,2.874,3.988,4.604,6.92,4.604
	c1.224,0,2.474-0.301,3.645-0.949c3.386-1.873,4.664-6.121,3.169-9.69L243.136,298h90.506l16.743,29h-59.572
	c-4.107,0-7.688,3.165-7.811,7.27c-0.127,4.247,3.278,7.73,7.497,7.73h72.656c2.131,0,4.227-0.799,5.681-2.356
	c2.314-2.477,2.658-6.081,1.034-8.894L350.963,298h10.393l23.238,40.25c1.34,2.32,3.816,3.75,6.495,3.75h33.524l3.949,7h-75.551
	c-2.131,0-4.227,0.799-5.681,2.356c-2.314,2.477-2.658,6.081-1.034,8.894l16.02,27.75h-10.393l-20.352-35.25
	c-1.34-2.321-3.816-3.75-6.495-3.75h-34.263c-4.107,0-7.688,3.165-7.811,7.27c-0.127,4.247,3.278,7.73,7.497,7.73h30.247l13.856,24
	h-157.02l10.122-24h2.482c4.107,0,7.688-3.165,7.811-7.27c0.127-4.247-3.278-7.73-7.497-7.73h-7.772
	c-3.016,0-5.739,1.807-6.911,4.586L161.303,388h-9.768l11.977-28.4c0.678-1.607,0.879-3.405,0.406-5.083
	c-0.948-3.362-3.951-5.516-7.239-5.516H83.438l3.949-7h102.799c4.107,0,7.688-3.165,7.811-7.27c0.127-4.247-3.278-7.73-7.497-7.73
	H95.849l16.36-29h17.382c3.492,0,6.479-2.463,7.197-5.88c0.013-0.063,0.027-0.127,0.041-0.191c0.985-4.59-2.477-8.929-7.172-8.929
	h-21.828c-2.706,0-5.203,1.458-6.532,3.814l-59.128,104.81c-1.041,1.846-1.377,4.05-0.748,6.073
	c1.002,3.221,3.941,5.301,7.173,5.301h414.572C463.18,403,463.167,403,463.18,403C463.189,403,463.171,403,463.18,403 M378.676,298
	h21.114l16.36,29h-20.731L378.676,298z M437.024,364l13.54,24h-70.927l-13.856-24H437.024z M145.378,364l-10.122,24H61.437
	l13.539-24H145.378z"/>
<path d="M373,223.5c0-12.958-10.542-23.5-23.5-23.5S326,210.542,326,223.5s10.542,23.5,23.5,23.5S373,236.458,373,223.5z M341,223.5
	c0-4.687,3.813-8.5,8.5-8.5s8.5,3.813,8.5,8.5s-3.813,8.5-8.5,8.5S341,228.186,341,223.5z"/>
<g>
</g>
<g>
</g>
<g>
</g>
<g>
</g>
<g>
</g>
<g>
</g>
<g>
</g>
<g>
</g>
<g>
</g>
<g>
</g>
<g>
</g>
<g>
</g>
<g>
</g>
<g>
</g>
<g>
</g>
</svg>
